# xmcd CD database file
#
# Track frame offsets:
#	150
#	17617
#	23877
#	38663
#	42408
#	56382
#	63429
#	87044
#	97778
#	116952
#	125014
#	138022
#	146507
#	156325
#	170809
#	178767
#	189235
#	191151
#	203366
#	206406
#	217739
#	232013
#	264702
#
# Disc length: 3792 seconds
#
# Revision: 0
# Processed by: cddbd v1.5.2PL0 Copyright (c) Steve Scherf et al.
# Submitted via: CDex 1.51
#
DISCID=400ece17
DTITLE=Sören Birke Project - Inluk
DYEAR=2016
DGENRE=Jazz
TTITLE0=Para Dies
TTITLE1=Mpacc't
TTITLE2=Disorient
TTITLE3=Cooling
TTITLE4=Gloomystic
TTITLE5=Kukozyhut
TTITLE6=Flowream
TTITLE7=Vaguest
TTITLE8=Napzzy
TTITLE9=Koaast
TTITLE10=Ckymoon
TTITLE11=Scramals
TTITLE12=Dan edic
TTITLE13=Gleidig
TTITLE14=Brooovy
TTITLE15=Walykyti
TTITLE16=Truestuck
TTITLE17=Exradiation
TTITLE18=Fleerun
TTITLE19=Hans In Luck
TTITLE20=Pridge
TTITLE21=Exitexistence
TTITLE22=Pa Para Dies
EXTD=YEAR: 2016
EXTT0=
EXTT1=
EXTT2=
EXTT3=
EXTT4=
EXTT5=
EXTT6=
EXTT7=
EXTT8=
EXTT9=
EXTT10=
EXTT11=
EXTT12=
EXTT13=
EXTT14=
EXTT15=
EXTT16=
EXTT17=
EXTT18=
EXTT19=
EXTT20=
EXTT21=
EXTT22=
PLAYORDER=
